<svg width="20" height="14" viewBox="0 0 20 14" fill="none" xmlns="http://www.w3.org/2000/svg">
<path d="M19.6096 6.61953C19.5807 6.55625 18.8963 5.03672 17.3846 3.525C15.3619 1.50547 12.8127 0.4375 10.0002 0.4375C7.18769 0.4375 4.63847 1.50547 2.61815 3.525C1.10643 5.03672 0.42206 6.55625 0.39081 6.61953C0.337882 6.73953 0.310547 6.86924 0.310547 7.00039C0.310547 7.13154 0.337882 7.26125 0.39081 7.38125C0.419716 7.44531 1.10409 8.96406 2.61659 10.4758C4.63847 12.4953 7.18769 13.5625 10.0002 13.5625C12.8127 13.5625 15.3619 12.4953 17.3814 10.4758C18.8939 8.96406 19.5783 7.44531 19.6072 7.38125C19.6605 7.26142 19.6882 7.13179 19.6887 7.00064C19.6891 6.86949 19.6621 6.73969 19.6096 6.61953ZM16.0111 9.19766C14.3338 10.8492 12.3119 11.6875 10.0002 11.6875C7.68847 11.6875 5.66659 10.8492 3.99159 9.19687C3.33249 8.54471 2.76553 7.80559 2.30643 7C2.76566 6.19474 3.33261 5.45589 3.99159 4.80391C5.66737 3.15078 7.68847 2.3125 10.0002 2.3125C12.3119 2.3125 14.333 3.15078 16.0088 4.80391C16.6678 5.45583 17.2348 6.19469 17.6939 7C17.2348 7.80554 16.6678 8.54465 16.0088 9.19687L16.0111 9.19766ZM10.0002 3.5625C9.32031 3.5625 8.65571 3.76411 8.09041 4.14182C7.52512 4.51954 7.08453 5.0564 6.82435 5.68453C6.56417 6.31265 6.4961 7.00381 6.62874 7.67062C6.76137 8.33743 7.08876 8.94994 7.56951 9.43068C8.05025 9.91142 8.66275 10.2388 9.32956 10.3714C9.99637 10.5041 10.6875 10.436 11.3157 10.1758C11.9438 9.91566 12.4806 9.47507 12.8584 8.90977C13.2361 8.34448 13.4377 7.67987 13.4377 7C13.4367 6.08864 13.0742 5.21489 12.4297 4.57046C11.7853 3.92603 10.9115 3.56353 10.0002 3.5625ZM10.0002 8.5625C9.69115 8.5625 9.38906 8.47086 9.13211 8.29917C8.87515 8.12748 8.67488 7.88345 8.55662 7.59794C8.43836 7.31243 8.40742 6.99827 8.46771 6.69517C8.528 6.39208 8.67681 6.11367 8.89533 5.89515C9.11385 5.67663 9.39226 5.52781 9.69536 5.46752C9.99845 5.40723 10.3126 5.43818 10.5981 5.55644C10.8836 5.6747 11.1277 5.87497 11.2994 6.13192C11.471 6.38887 11.5627 6.69097 11.5627 7C11.5627 7.4144 11.3981 7.81183 11.105 8.10485C10.812 8.39788 10.4146 8.5625 10.0002 8.5625Z" fill="#633CFF"/>
</svg>
